<?xml version="1.0" standalone="no"?>
<!DOCTYPE svg PUBLIC "-//W3C//DTD SVG 20010904//EN"
 "http://www.w3.org/TR/2001/REC-SVG-20010904/DTD/svg10.dtd">
<svg version="1.0" xmlns="http://www.w3.org/2000/svg"
 width="700.000000pt" height="700.000000pt" viewBox="0 0 700.000000 700.000000"
 preserveAspectRatio="xMidYMid meet">
<metadata>
Created by potrace 1.14, written by Peter Selinger 2001-2017
</metadata>
<g transform="translate(0.000000,700.000000) scale(0.100000,-0.100000)"
fill="#000000" stroke="none">
<path d="M3450 6767 c-25 -12 -77 -36 -115 -54 -39 -17 -144 -66 -235 -108
-91 -42 -190 -88 -220 -102 -30 -13 -82 -37 -115 -53 -55 -26 -387 -179 -515
-237 -30 -14 -102 -47 -158 -74 -57 -27 -105 -49 -107 -49 -1 0 -49 -22 -106
-49 -57 -27 -187 -87 -289 -134 -102 -47 -219 -100 -260 -120 -41 -19 -190
-87 -330 -151 -140 -65 -262 -121 -271 -126 -14 -7 -172 -80 -319 -147 -114
-52 -167 -118 -174 -214 -7 -101 42 -186 132 -226 99 -46 123 -41 417 97 76
36 269 125 544 252 35 16 96 44 135 62 181 86 269 126 272 126 1 0 54 24 116
54 62 29 165 77 228 106 63 29 144 66 180 83 36 16 92 42 125 57 33 15 96 45
140 65 44 21 132 61 195 90 63 29 149 69 190 88 41 19 105 49 143 66 37 17 97
45 135 63 303 142 313 146 341 132 14 -7 91 -43 171 -79 80 -37 179 -83 220
-102 41 -19 118 -54 170 -78 52 -24 140 -64 195 -90 55 -26 125 -58 155 -72
47 -22 173 -80 488 -224 34 -16 90 -42 125 -58 83 -39 191 -88 252 -116 28
-12 89 -41 137 -64 48 -22 89 -41 91 -41 2 0 66 -29 141 -65 75 -36 138 -65
140 -65 2 0 55 -24 117 -54 137 -64 458 -212 514 -236 118 -51 283 27 293 137
11 129 -10 198 -73 251 -19 15 -91 54 -162 87 -70 32 -183 85 -251 117 -68 32
-125 58 -127 58 -1 0 -54 24 -116 54 -63 30 -145 68 -184 86 -77 36 -235 109
-545 253 -113 52 -258 120 -323 151 -65 31 -120 56 -121 56 -2 0 -53 23 -112
51 -105 49 -303 141 -449 209 -38 18 -108 50 -155 72 -47 23 -108 51 -137 64
-28 13 -89 41 -135 62 -214 101 -347 162 -350 161 -1 0 -23 -10 -48 -22z"/>
<path d="M2059 4621 c0 -58 0 -4062 0 -4116 l1 -40 433 1 c238 0 437 3 442 6
7 4 10 274 10 747 l0 742 560 -1 c308 0 576 2 595 5 19 2 55 7 80 10 131 17
344 83 475 147 117 58 247 140 275 175 8 10 36 43 61 73 120 142 246 406 264
553 3 21 7 43 10 47 5 9 19 179 17 220 0 14 -3 108 -6 210 -3 102 -7 199 -10
215 -53 338 -234 646 -470 802 -161 106 -353 185 -550 226 -99 20 -127 21
-1143 22 l-1043 1 -1 -45z m1857 -716 c233 -50 368 -168 432 -377 26 -83 29
-294 6 -403 -35 -165 -136 -301 -274 -367 -145 -70 -153 -71 -660 -73 -250 -1
-460 1 -465 4 -7 4 -11 207 -10 619 l0 612 455 -1 c334 -1 471 -4 516 -14z"/>
</g>
</svg>
